<svg width="141" height="60" viewBox="0 0 141 60" fill="none" xmlns="http://www.w3.org/2000/svg">
<path d="M9.61409 49.7021C9.61409 51.0698 8.47869 52.2826 7.03364 52.2826H3.16295C1.7566 52.2826 0.621204 51.1601 0.582497 49.7021H1.87272C1.87272 50.4118 2.45333 50.9924 3.16295 50.9924H7.03364C7.74326 50.9924 8.32386 50.4118 8.32386 49.7021C8.32386 48.9925 7.74326 48.4119 7.03364 48.4119H3.16295C1.78241 48.4119 0.582497 47.2894 0.582497 45.8315C0.582497 44.4638 1.7179 43.251 3.16295 43.251H7.03364C8.41418 43.251 9.57538 44.3993 9.61409 45.8315H8.32386C8.32386 45.1218 7.74326 44.5412 7.03364 44.5412H3.16295C2.45333 44.5412 1.87272 45.1218 1.87272 45.8315C1.87272 46.5411 2.45333 47.1217 3.16295 47.1217H7.03364C8.38837 47.1217 9.61409 48.27 9.61409 49.7021ZM13.2303 43.251H17.1009C18.4815 43.251 19.6427 44.3993 19.6814 45.8315H18.3912C18.3912 45.1218 17.8106 44.5412 17.1009 44.5412H13.2303C12.5206 44.5412 11.94 45.1218 11.94 45.8315V49.7021C11.94 50.4118 12.5206 50.9924 13.2303 50.9924H17.1009C17.8106 50.9924 18.3912 50.4118 18.3912 49.7021H19.6814C19.6814 51.0698 18.546 52.2826 17.1009 52.2826H13.2303C11.8497 52.2826 10.6498 51.1601 10.6498 49.7021V45.8315C10.6498 44.438 11.7852 43.2897 13.2303 43.251ZM28.3199 49.7021V45.8315C28.3199 45.1218 27.7393 44.5412 27.0296 44.5412H23.159C22.4493 44.5412 21.8687 45.1218 21.8687 45.8315V49.7021C21.8687 50.4118 22.4493 50.9924 23.159 50.9924H27.0296C27.7393 50.9924 28.3199 50.4118 28.3199 49.7021ZM29.6101 45.8315V49.7021C29.6101 51.1214 28.4489 52.2826 27.0296 52.2826H23.159C21.7268 52.2826 20.5785 51.1343 20.5785 49.7021V45.8315C20.5785 44.4122 21.7397 43.251 23.159 43.251H27.0296C28.3973 43.251 29.6101 44.4251 29.6101 45.8315ZM38.5162 47.1217V45.8315C38.5162 45.1218 37.9356 44.5412 37.226 44.5412H32.0651V48.4119H37.226C37.9356 48.4119 38.5162 47.8313 38.5162 47.1217ZM39.8064 45.8315V47.1217C39.8064 48.4893 38.671 49.7021 37.226 49.7021H32.0651V52.2826H30.7748V43.251H37.226C38.6065 43.251 39.7677 44.3993 39.8064 45.8315ZM47.2933 44.5412H43.4226C42.713 44.5412 42.1324 45.1218 42.1324 45.8315V48.4119H48.5835V45.8315C48.5835 45.1218 48.0029 44.5412 47.2933 44.5412ZM49.8737 45.8315V52.2826H48.5835V49.7021H42.1324V52.2826H40.8421V45.8315C40.8421 44.4638 41.9775 43.251 43.4226 43.251H47.2933C48.6738 43.251 49.835 44.3993 49.8737 45.8315ZM56.3274 52.2826V43.251H57.6176V52.2826H56.3274ZM67.942 43.251V52.2826H66.6517L60.2006 45.3412V52.2826H58.9104V43.251H60.2006L66.6517 50.0892V43.251H67.942ZM76.971 49.7021V45.8315C76.971 45.1218 76.3904 44.5412 75.6808 44.5412H70.5199V50.9924H75.6808C76.3904 50.9924 76.971 50.4118 76.971 49.7021ZM78.2612 45.8315V49.7021C78.2612 51.0698 77.1258 52.2826 75.6808 52.2826H69.2297V43.251H75.6808C77.0613 43.251 78.2225 44.3993 78.2612 45.8315ZM87.1643 49.7021V43.251H88.4546V49.7021C88.4546 51.0698 87.3192 52.2826 85.8741 52.2826H82.0034C80.6229 52.2826 79.423 51.1601 79.423 49.7021V43.251H80.7132V49.7021C80.7132 50.4118 81.2938 50.9924 82.0034 50.9924H85.8741C86.5837 50.9924 87.1643 50.4118 87.1643 49.7021ZM98.6448 49.7021C98.6448 51.0698 97.5094 52.2826 96.0644 52.2826H92.1937C90.7873 52.2826 89.6519 51.1601 89.6132 49.7021H90.9035C90.9035 50.4118 91.4841 50.9924 92.1937 50.9924H96.0644C96.774 50.9924 97.3546 50.4118 97.3546 49.7021C97.3546 48.9925 96.774 48.4119 96.0644 48.4119H92.1937C90.8131 48.4119 89.6132 47.2894 89.6132 45.8315C89.6132 44.4638 90.7486 43.251 92.1937 43.251H96.0644C97.4449 43.251 98.6061 44.3993 98.6448 45.8315H97.3546C97.3546 45.1218 96.774 44.5412 96.0644 44.5412H92.1937C91.4841 44.5412 90.9035 45.1218 90.9035 45.8315C90.9035 46.5411 91.4841 47.1217 92.1937 47.1217H96.0644C97.4191 47.1217 98.6448 48.27 98.6448 49.7021ZM107.944 44.5412H104.073V52.2826H102.783V44.5412H98.9124V43.251H107.944V44.5412ZM116.333 47.1217V45.8315C116.333 45.1218 115.752 44.5412 115.043 44.5412H109.882V48.4119H115.043C115.752 48.4119 116.333 47.8313 116.333 47.1217ZM117.623 52.2826H116.707L114.127 49.7021H109.882V52.2826H108.592V43.251H115.043C116.398 43.251 117.623 44.3993 117.623 45.8315V47.1217C117.623 48.2184 116.901 49.2119 115.83 49.5731L117.623 51.3665V52.2826ZM118.785 52.2826V43.251H120.075V52.2826H118.785ZM122.658 44.5412V47.1217H129.109V48.4119H122.658V50.9924H130.4V52.2826H121.368V43.251H130.4V44.5412H122.658ZM140.338 49.7021C140.338 51.0698 139.202 52.2826 137.757 52.2826H133.887C132.48 52.2826 131.345 51.1601 131.306 49.7021H132.596C132.596 50.4118 133.177 50.9924 133.887 50.9924H137.757C138.467 50.9924 139.048 50.4118 139.048 49.7021C139.048 48.9925 138.467 48.4119 137.757 48.4119H133.887C132.506 48.4119 131.306 47.2894 131.306 45.8315C131.306 44.4638 132.442 43.251 133.887 43.251H137.757C139.138 43.251 140.299 44.3993 140.338 45.8315H139.048C139.048 45.1218 138.467 44.5412 137.757 44.5412H133.887C133.177 44.5412 132.596 45.1218 132.596 45.8315C132.596 46.5411 133.177 47.1217 133.887 47.1217H137.757C139.112 47.1217 140.338 48.27 140.338 49.7021Z" fill="white"/>
<path d="M99.4801 4.85164C98.0188 4.17212 96.4962 3.72847 94.8837 3.9986C92.8744 4.33554 91.3626 5.47331 90.2913 7.19343C89.8844 7.84599 89.5213 8.5255 89.111 9.17525C88.7232 9.78962 88.2241 10.2984 87.5424 10.5977C86.7758 10.9347 86.0811 10.7263 85.8169 10.0923C85.4106 9.1292 86.2666 7.83027 87.3131 7.81847C87.4075 7.81847 87.5025 7.82521 87.6104 7.82914C87.0371 7.16142 86.0063 7.04293 85.179 7.56183C84.4405 8.02345 83.9622 8.69735 83.7009 9.51838C83.4654 10.2614 83.2968 11.0262 83.0483 11.7647C82.7943 12.5217 82.5425 13.2928 82.1749 13.9959C81.5837 15.119 80.6861 15.9238 79.3648 16.1001C79.0382 16.1434 78.6987 16.0934 78.3598 16.0468C79.9251 15.0848 80.7367 13.8004 80.3371 11.9276C79.5317 13.1659 78.3003 13.7454 76.9694 14.1739C76.4708 14.3345 75.974 14.499 75.4721 14.649C74.4837 14.9389 73.5655 15.4286 72.7743 16.0878C72.7524 16.1035 72.7299 16.1175 72.7085 16.1338C69.6567 18.4442 67.313 22.6583 63.9554 24.4716C63.8379 24.5351 63.7137 24.6131 63.5771 24.5794C62.7903 24.3862 61.9967 24.3834 61.1969 24.4531C60.3791 24.5244 59.5906 24.7473 58.7908 24.9091H58.7773C58.7346 24.8647 58.6919 24.8215 58.6537 24.7839C58.1709 24.3132 57.542 23.5618 57.47 22.8958C57.3739 22.0012 57.5521 21.5418 57.6133 20.3125C57.5116 19.3522 57.302 18.4194 56.7349 17.6125C56.5269 17.3171 56.2695 17.0565 56.0042 16.7459C57.9124 17.9887 58.8583 19.7661 59.164 21.9872C59.4386 21.5183 59.6015 20.9926 59.6401 20.4507C59.7171 19.4028 59.4006 18.4852 58.7324 17.6759C58.4625 17.3523 58.2233 17.0043 58.018 16.6364C57.909 16.4387 57.8966 16.1804 57.8758 15.9462C57.8657 15.8339 57.9371 15.7137 57.9736 15.5896C58.2855 15.9681 58.5598 16.3135 58.8493 16.646C58.9471 16.7583 59.3146 17.2688 59.4984 17.4883C59.7148 17.8927 59.9868 18.5778 60.2066 19.6982C60.2066 19.6982 61.0496 17.7214 59.7896 15.4936C59.5981 15.0921 59.3013 14.75 58.9308 14.5035C58.4952 14.2081 58.0315 13.956 57.5706 13.6965C57.08 13.4191 56.5837 13.1501 56.2111 12.7115C55.8384 12.2729 55.581 11.7799 55.7142 11.1638C55.1848 11.4929 54.8071 12.4341 54.9105 13.1855C55.0229 14.0015 55.4905 14.5692 56.1981 14.9826C56.1489 14.984 56.0997 14.9797 56.0514 14.9697C55.626 14.827 55.1848 14.7169 54.7818 14.5266C54.2423 14.2716 53.9455 13.8027 53.8752 13.2108C53.8406 12.8823 53.8244 12.5521 53.8269 12.2218C53.8235 11.3699 53.751 10.5315 53.3492 9.76042C52.8698 8.84055 52.1172 8.35928 51.0639 8.38455C51.0257 8.38455 50.9875 8.39522 50.9442 8.40083C51.1791 8.61199 51.413 8.8018 51.6237 9.0152C51.9295 9.31223 52.1395 9.69376 52.2268 10.1108C52.3313 10.641 52.0492 10.9802 51.5068 10.9712C51.0499 10.9639 50.643 10.7853 50.2546 10.5646C48.5123 9.57454 47.8097 8.0403 47.9176 6.08487C47.9216 6.01523 47.9278 5.9456 47.9334 5.87259C47.9126 5.87821 47.8929 5.87821 47.8895 5.88551C47.4399 6.84525 47.1482 7.85104 47.3275 8.90963C47.5523 10.2322 48.2993 11.2267 49.4329 11.9315C49.8629 12.1994 50.3108 12.4369 50.7391 12.7082C51.1437 12.9637 51.4804 13.2922 51.6766 13.7409C51.8969 14.2463 51.7614 14.7007 51.3449 14.8759C50.7104 15.1437 49.8539 14.5816 49.8466 13.8914C49.8466 13.8296 49.8505 13.7667 49.8533 13.696C49.4132 14.0734 49.3368 14.7512 49.6768 15.2959C49.9809 15.7817 50.4255 16.0962 50.965 16.2669C51.4551 16.4219 51.9587 16.5325 52.4454 16.696C52.9445 16.8644 53.4526 17.0273 53.9163 17.2705C54.6576 17.6596 55.1865 18.2504 55.3028 19.1203C55.3315 19.3348 55.2983 19.5583 55.2674 19.7813C54.634 18.7513 53.7881 18.2173 52.5533 18.4801C53.3688 19.0102 53.751 19.8206 54.0343 20.6961C54.1405 21.0241 54.249 21.3515 54.3479 21.6811C54.7919 23.1614 55.7603 24.1363 56.867 24.6873C56.6566 24.6622 56.4438 24.6647 56.2341 24.6946C55.0077 24.9383 53.9601 25.3409 53.0828 26.2063C52.9569 26.3299 52.858 26.4871 52.9883 26.6202C53.1187 26.7533 53.2429 26.6202 53.3587 26.5158C54.3462 25.6403 55.5226 25.2331 56.8057 25.4622C57.9933 25.6745 59.1146 25.6195 60.2454 25.2415C60.5584 25.1371 60.8996 25.1163 61.2284 25.0573L62.2873 24.8709C60.9013 26.1165 60.6849 26.6618 61.1716 27.5665C60.9996 27.6827 60.8344 27.5025 60.6579 27.5272C60.6579 27.5833 60.6489 27.6153 60.6579 27.6395C60.7855 27.9051 60.9007 28.159 60.4129 28.1039C60.3072 28.0921 60.1802 28.1865 60.2105 28.2511C60.4353 28.7295 59.9705 28.524 59.8345 28.6341C59.7564 28.6975 59.6254 28.6947 59.5428 28.7554C59.051 29.1153 58.0855 29.172 57.5836 28.8345C57.2171 28.588 56.5618 28.1477 56.5607 28.1477L56.4612 28.1011C56.0587 27.9067 55.6382 27.7521 55.2056 27.6395C54.7087 27.5148 54.2023 27.4536 53.6735 27.5339C53.2559 27.5968 53.0552 27.7136 52.8995 28.0073C54.0798 27.763 55.1387 27.9983 56.1127 28.7509C56.5061 29.053 56.8647 29.3956 57.2368 29.7207C58.1293 30.4991 59.7221 31.3358 60.7832 31.5818C59.8334 31.1735 58.9386 30.6776 58.1911 29.9257C59.0027 30.2879 59.8244 30.5957 60.7416 30.745C60.5787 30.4642 60.2358 30.4249 60.1318 30.1127C60.5298 30.1447 60.9007 30.1762 61.2717 30.2048C61.671 30.2456 62.0737 30.2398 62.4716 30.1874L61.8033 29.4236C62.3991 29.5708 62.91 29.6073 63.4585 29.5208C63.3062 29.3445 63.0567 29.4146 62.9263 29.2467C64.1521 28.7632 65.3616 28.8896 66.5452 29.6455C67.8312 30.4671 69.0682 31.3729 70.3946 32.1209C71.7598 32.8908 72.939 33.8405 73.9299 35.0411C74.092 35.2372 74.2704 35.4192 74.4632 35.5853C74.8274 35.8987 75.2259 35.8768 75.5873 35.5213C75.5961 35.5132 75.6021 35.5026 75.6045 35.4909C75.6068 35.4792 75.6054 35.4671 75.6004 35.4563C75.5954 35.4455 75.587 35.4365 75.5766 35.4307C75.5662 35.425 75.5542 35.4226 75.5423 35.4241C75.2405 35.4309 75.0837 35.1849 74.8381 34.9968C74.8066 34.9734 74.7831 34.9409 74.7708 34.9037C74.7586 34.8665 74.7581 34.8265 74.7695 34.789C74.7785 34.7632 74.792 34.7463 74.8111 34.7452C74.8999 34.7396 75.0815 34.9198 75.1484 34.9137C75.3647 34.9002 75.5199 34.7806 75.5311 34.5767C75.5418 34.3802 75.3361 34.3948 75.2017 34.3599C74.8803 34.2768 74.5206 34.3116 74.2418 34.0988C73.2402 33.3356 72.2578 32.5483 71.4012 31.6205C70.8712 31.0466 70.5464 30.3289 70.0726 29.7112C68.7574 28.0028 67.1275 27.0437 64.8906 27.4783C64.8074 27.494 64.713 27.548 64.5967 27.3952C66.1344 26.7741 69.5055 26.0474 73.3644 25.3892C67.6142 25.1433 65.4161 26.1625 63.4675 26.6146C63.6193 26.3962 63.7789 26.3473 63.9138 26.2709C67.2146 24.3924 67.4709 24.097 71.4552 20.6703C71.5013 20.6304 71.5564 20.5872 71.6165 20.5417C72.1785 20.2373 72.8187 20.0699 73.4679 20.0003C74.828 19.8543 76.1932 19.7521 77.5533 19.6072C80.7788 19.1922 83.6334 15.8165 84.1055 15.4167C81.6612 21.2448 75.4462 21.6014 72.0706 22.0658C72.8429 22.5061 75.2079 23.0121 76.0133 23.071C77.6061 23.1878 80.3281 22.3219 81.5601 21.3082C82.0514 20.8985 82.58 20.5354 83.1388 20.2238C83.439 20.0587 83.8318 20.0396 84.1876 20.0082C84.3517 19.9936 84.5248 20.0918 84.7069 20.1491C84.6751 20.1843 84.6425 20.2197 84.6091 20.2553C84.0814 20.6877 83.5935 21.0774 83.1242 21.4851C82.9489 21.6373 82.1378 22.2197 81.8197 22.4915C80.8692 23.1047 79.8834 23.6615 78.8674 24.1588C81.1717 24.0055 82.8325 23.5888 83.8841 23.2339C84.0358 23.2041 84.1859 23.1667 84.3337 23.1216C85.1742 22.8731 85.8999 22.3361 86.3829 21.6053C86.8325 20.9443 87.2147 20.2384 87.6093 19.542C88.0314 18.7968 88.44 18.0449 89.106 17.4788C89.7804 16.9054 90.5218 16.5241 91.4587 16.7246C90.9579 15.9221 89.5281 15.3487 88.386 15.506C87.1456 15.6744 86.2829 16.3854 85.6556 17.4591C85.6531 17.3837 85.6597 17.3083 85.6753 17.2345C85.8923 16.5893 86.0597 15.9198 86.3498 15.3077C86.737 14.4895 87.4491 14.0391 88.3484 13.933C88.8472 13.8816 89.3486 13.8586 89.8501 13.8639C91.1428 13.8594 92.4186 13.7488 93.591 13.1389C94.9894 12.4088 95.72 11.2705 95.6818 9.67225C95.6767 9.611 95.6683 9.55007 95.6565 9.48974C95.3362 9.84634 95.0478 10.2018 94.7235 10.5208C94.2582 10.9791 93.7074 11.3042 93.0582 11.4323C92.2528 11.5906 91.7374 11.1621 91.7509 10.34C91.7622 9.64642 92.0319 9.02924 92.3692 8.43958C93.8737 5.79453 96.2056 4.72977 99.1771 4.89432C99.2828 4.89993 99.3885 4.90948 99.4997 4.91734C99.4913 4.88646 99.4919 4.85613 99.4806 4.85108" fill="#ED4B00"/>
<path d="M75.0499 31.7374C74.6565 31.7279 74.5699 31.8497 74.7189 32.2176C74.5109 32.2063 74.3153 32.1912 74.1198 32.1878C74.0569 32.1951 73.9953 32.2108 73.9365 32.2344C74.0793 32.6623 73.7426 32.3961 73.6336 32.4281C73.5111 32.4641 73.3694 32.4366 73.2362 32.4366L73.2109 32.4927C73.3385 32.5551 73.4678 32.6135 73.5926 32.6803C74.1866 32.9987 74.8538 33.1161 75.4737 33.3598C76.7551 33.8652 78.0029 34.4442 79.2438 35.0446C79.3658 35.1007 79.5069 35.2849 79.6519 35.0586C79.9947 34.5245 80.3393 33.9916 80.6945 33.4407C79.0229 33.0549 77.3823 32.5456 75.7862 31.9171C75.5485 31.8244 75.3051 31.7419 75.0499 31.7357" fill="#ED4B00"/>
<path d="M80.7884 31.0364C78.837 30.969 76.889 30.8517 74.9854 30.3659C74.8488 30.3223 74.7012 30.328 74.5684 30.3822C74.8454 30.5074 75.1085 30.6012 75.3058 30.7989C75.503 30.9965 75.7318 31.2032 75.1765 31.3981C75.268 31.4419 75.3618 31.4809 75.4575 31.5149C77.1801 31.9574 78.9388 32.2208 80.6811 32.5684C80.8581 32.6038 80.9121 32.5381 80.9357 32.3702C80.979 32.0664 81.02 31.7569 81.1138 31.4671C81.2234 31.1302 81.1459 31.0488 80.7884 31.0364Z" fill="#ED4B00"/>
<path d="M72.3418 35.7565C72.1519 35.8324 71.8984 35.9037 71.7798 35.7273C71.6067 35.4645 71.3644 35.2595 71.1806 35.0018C71.3273 34.9114 71.4527 34.9153 71.5544 34.9782C71.8394 35.1545 72.144 35.1326 72.4598 35.1287C72.6639 35.1287 72.6594 35.0551 72.6026 34.9198C72.5458 34.7844 72.457 34.6469 72.3042 34.6154C72.004 34.5548 71.7225 34.4104 71.4049 34.4189C71.0267 34.4295 70.7175 34.279 70.4191 34.046C69.4642 33.2946 68.498 32.555 67.4352 31.9524C67.3077 31.8799 67.1964 31.794 67.0306 31.8227C66.4292 31.9266 65.8261 32.0192 65.1865 32.1226C65.2427 32.1748 65.2613 32.2017 65.2838 32.2074C65.3866 32.2349 65.4911 32.2568 65.5957 32.2798C67.5932 32.7291 69.2883 33.6596 70.5203 35.3382C70.7257 35.6031 70.966 35.839 71.2346 36.0396C71.7663 36.4596 72.434 36.3243 72.7915 35.7178C72.629 35.6184 72.4896 35.6976 72.3418 35.7565Z" fill="#ED4B00"/>
<path d="M79.2018 29.4938C79.1697 29.2608 79.0927 29.2237 78.8679 29.2574C78.2997 29.3428 77.7264 29.395 77.1543 29.4528C74.8179 29.6893 72.6613 28.8446 70.457 28.3179C70.547 28.4302 70.6633 28.4897 70.7875 28.5492C73.2043 29.7072 75.7986 30.1217 78.4374 30.3401C79.3367 30.4137 79.3288 30.4047 79.2018 29.4938Z" fill="#ED4B00"/>
<path d="M58.2108 28.592C57.5672 28.2831 57.4138 27.5149 56.7613 27.2161C56.9024 27.1128 56.9299 27.0785 57.2418 27.0022C56.8214 26.6952 56.3364 26.4882 55.8238 26.3968C55.6614 26.3681 55.5546 26.4434 55.4635 26.5843C55.2095 26.9825 54.8239 27.1734 54.3625 27.2296C54.145 27.256 53.9528 27.3054 53.7358 27.338C56.3302 27.3015 57.5684 28.5909 58.2108 28.5948" fill="#ED4B00"/>
<path d="M53.2736 26.9808C53.173 26.7731 53.0128 26.6759 52.7936 26.7511C52.1191 26.9831 51.8943 28.0085 52.4002 28.5308C52.5204 27.8951 52.6812 27.7378 53.6883 27.3475C53.4073 27.2953 53.3472 27.1302 53.2753 26.9808" fill="#ED4B00"/>
<path d="M54.9848 26.1261C55.2068 26.1491 55.1855 26.3153 55.1888 26.463C55.2726 26.3176 55.4322 26.1654 55.2299 26.0138C54.9567 25.8049 54.6987 25.9228 54.4846 26.1295C54.3053 26.303 54.1693 26.5484 54.348 26.7612C54.5425 26.992 54.8067 26.9527 55.0225 26.7287C54.8511 26.6478 54.5998 26.622 54.6482 26.3546C54.6653 26.2814 54.7097 26.2174 54.7723 26.1757C54.8349 26.134 54.9111 26.1176 54.9854 26.13" fill="#ED4B00"/>
<path d="M53.8744 26.6158C53.7142 26.6798 53.4203 26.5557 53.4214 26.8567C53.4214 27.06 53.599 27.0881 53.7721 27.0314C53.934 27.0538 54.0874 27.0589 54.1936 26.9061C54.025 26.8736 54.152 26.5046 53.8744 26.6158ZM53.8036 26.9847C53.7918 26.9741 53.7446 26.9432 53.7474 26.9286C53.7772 26.846 53.8553 26.8292 53.9306 26.8258C53.9497 26.8258 53.9935 26.882 53.9868 26.896C53.9581 26.9623 53.8924 26.9763 53.8019 26.9825" fill="#ED4B00"/>
<path d="M41.5 23.5809L41.5142 23.5933L41.5136 23.5889L41.5 23.5809Z" fill="#ED4B00"/>
</svg>
