<svg width="58" height="32" xmlns="http://www.w3.org/2000/svg" fill="none">

 <g>
  <title>Layer 1</title>
  <path id="svg_2" fill="#ED4B00" d="m57.9801,0.9333c-1.4613,-0.67952 -2.9839,-1.12317 -4.5964,-0.85304c-2.0093,0.33694 -3.5211,1.47471 -4.5924,3.19483c-0.4069,0.65256 -0.77,1.33207 -1.1803,1.98182c-0.3878,0.61437 -0.8869,1.12315 -1.5686,1.42245c-0.7666,0.337 -1.4613,0.1286 -1.7255,-0.5054c-0.4063,-0.9631 0.4497,-2.26203 1.4962,-2.27383c0.0944,0 0.1894,0.00674 0.2973,0.01067c-0.5733,-0.66772 -1.6041,-0.78621 -2.4314,-0.26731c-0.7385,0.46162 -1.2168,1.13552 -1.4781,1.95655c-0.2355,0.74302 -0.4041,1.50782 -0.6526,2.24632c-0.254,0.757 -0.5058,1.5281 -0.8734,2.2312c-0.5912,1.1231 -1.4888,1.9279 -2.8101,2.1042c-0.3266,0.0433 -0.6661,-0.0067 -1.005,-0.0533c1.5653,-0.962 2.3769,-2.2464 1.9773,-4.1192c-0.8054,1.2383 -2.0368,1.8178 -3.3677,2.2463c-0.4986,0.1606 -0.9954,0.3251 -1.4973,0.4751c-0.9884,0.2899 -1.9066,0.7796 -2.6978,1.4388c-0.0219,0.0157 -0.0444,0.0297 -0.0658,0.046c-3.0518,2.3104 -5.3955,6.5245 -8.7531,8.3378c-0.1175,0.0635 -0.2417,0.1415 -0.3783,0.1078c-0.7868,-0.1932 -1.5804,-0.196 -2.3802,-0.1263c-0.8178,0.0713 -1.6063,0.2942 -2.4061,0.456l-0.0135,0c-0.0427,-0.0444 -0.0854,-0.0876 -0.1236,-0.1252c-0.4828,-0.4707 -1.1117,-1.2221 -1.1837,-1.8881c-0.0961,-0.8946 0.0821,-1.354 0.1433,-2.5833c-0.1017,-0.9603 -0.3113,-1.8931 -0.8784,-2.7c-0.208,-0.2954 -0.4654,-0.556 -0.7307,-0.8666c1.9082,1.2428 2.8541,3.0202 3.1598,5.2413c0.2746,-0.4689 0.4375,-0.9946 0.4761,-1.5365c0.077,-1.0479 -0.2395,-1.9655 -0.9077,-2.7748c-0.2699,-0.3236 -0.5091,-0.6716 -0.7144,-1.0395c-0.109,-0.1977 -0.1214,-0.456 -0.1422,-0.6902c-0.0101,-0.1123 0.0613,-0.2325 0.0978,-0.3566c0.3119,0.3785 0.5862,0.7239 0.8757,1.0564c0.0978,0.1123 0.4653,0.6228 0.6491,0.8423c0.2164,0.4044 0.4884,1.0895 0.7082,2.2099c0,0 0.843,-1.9768 -0.417,-4.2046c-0.1915,-0.4015 -0.4883,-0.7436 -0.8588,-0.9901c-0.4356,-0.2954 -0.8993,-0.5475 -1.3602,-0.807c-0.4906,-0.2774 -0.9869,-0.5464 -1.3595,-0.985c-0.3727,-0.4386 -0.6301,-0.9316 -0.4969,-1.5477c-0.5294,0.3291 -0.9071,1.2703 -0.8037,2.0217c0.1124,0.816 0.58,1.3837 1.2876,1.7971c-0.0492,0.0014 -0.0984,-0.0029 -0.1467,-0.0129c-0.4254,-0.1427 -0.8666,-0.2528 -1.2696,-0.4431c-0.5395,-0.255 -0.8363,-0.7239 -0.9066,-1.3158c-0.0346,-0.3285 -0.0508,-0.6587 -0.0483,-0.989c-0.0034,-0.8519 -0.0759,-1.6903 -0.4777,-2.46138c-0.4794,-0.91987 -1.232,-1.40114 -2.2853,-1.37587c-0.0382,0 -0.0764,0.01067 -0.1197,0.01628c0.2349,0.21116 0.4688,0.40097 0.6795,0.61437c0.3058,0.29703 0.5158,0.67856 0.6031,1.0956c0.1045,0.5302 -0.1776,0.8694 -0.72,0.8604c-0.4569,-0.0073 -0.8638,-0.1859 -1.2522,-0.4066c-1.7423,-0.99006 -2.4449,-2.5243 -2.337,-4.47973c0.004,-0.06964 0.0102,-0.13927 0.0158,-0.21228c-0.0208,0.00562 -0.0405,0.00562 -0.0439,0.01292c-0.4496,0.95974 -0.7413,1.96553 -0.562,3.02412c0.2248,1.32257 0.9718,2.31707 2.1054,3.02187c0.43,0.2679 0.8779,0.5054 1.3062,0.7767c0.4046,0.2555 0.7413,0.584 0.9375,1.0327c0.2203,0.5054 0.0848,0.9598 -0.3317,1.135c-0.6345,0.2678 -1.491,-0.2943 -1.4983,-0.9845c0,-0.0618 0.0039,-0.1247 0.0067,-0.1954c-0.4401,0.3774 -0.5165,1.0552 -0.1765,1.5999c0.3041,0.4858 0.7487,0.8003 1.2882,0.971c0.4901,0.155 0.9937,0.2656 1.4804,0.4291c0.4991,0.1684 1.0072,0.3313 1.4709,0.5745c0.7413,0.3891 1.2702,0.9799 1.3865,1.8498c0.0287,0.2145 -0.0045,0.438 -0.0354,0.661c-0.6334,-1.03 -1.4793,-1.564 -2.7141,-1.3012c0.8155,0.5301 1.1977,1.3405 1.481,2.216c0.1062,0.328 0.2147,0.6554 0.3136,0.985c0.444,1.4803 1.4124,2.4552 2.5191,3.0062c-0.2104,-0.0251 -0.4232,-0.0226 -0.6329,0.0073c-1.2264,0.2437 -2.274,0.6463 -3.1513,1.5117c-0.1259,0.1236 -0.2248,0.2808 -0.0945,0.4139c0.1304,0.1331 0.2546,0 0.3704,-0.1044c0.9875,-0.8755 2.1639,-1.2827 3.447,-1.0536c1.1876,0.2123 2.3089,0.1573 3.4397,-0.2207c0.313,-0.1044 0.6542,-0.1252 0.983,-0.1842l1.0589,-0.1864c-1.386,1.2456 -1.6024,1.7909 -1.1157,2.6956c-0.172,0.1162 -0.3372,-0.064 -0.5137,-0.0393c0,0.0561 -0.009,0.0881 0,0.1123c0.1276,0.2656 0.2428,0.5195 -0.245,0.4644c-0.1057,-0.0118 -0.2327,0.0826 -0.2024,0.1472c0.2248,0.4784 -0.24,0.2729 -0.376,0.383c-0.0781,0.0634 -0.2091,0.0606 -0.2917,0.1213c-0.4918,0.3599 -1.4573,0.4166 -1.9592,0.0791c-0.3665,-0.2465 -1.0218,-0.6868 -1.0229,-0.6868l-0.0995,-0.0466c-0.4025,-0.1944 -0.823,-0.349 -1.2556,-0.4616c-0.4969,-0.1247 -1.0033,-0.1859 -1.5321,-0.1056c-0.4176,0.0629 -0.6183,0.1797 -0.774,0.4734c1.1803,-0.2443 2.2392,-0.009 3.2132,0.7436c0.3934,0.3021 0.752,0.6447 1.1241,0.9698c0.8925,0.7784 2.4853,1.6151 3.5464,1.8611c-0.9498,-0.4083 -1.8446,-0.9042 -2.5921,-1.6561c0.8116,0.3622 1.6333,0.67 2.5505,0.8193c-0.1629,-0.2808 -0.5058,-0.3201 -0.6098,-0.6323c0.398,0.032 0.7689,0.0635 1.1399,0.0921c0.3993,0.0408 0.802,0.035 1.1999,-0.0174l-0.6683,-0.7638c0.5958,0.1472 1.1067,0.1837 1.6552,0.0972c-0.1523,-0.1763 -0.4018,-0.1062 -0.5322,-0.2741c1.2258,-0.4835 2.4353,-0.3571 3.6189,0.3988c1.286,0.8216 2.523,1.7274 3.8494,2.4754c1.3652,0.7699 2.5444,1.7196 3.5353,2.9202c0.1621,0.1961 0.3405,0.3781 0.5333,0.5442c0.3642,0.3134 0.7627,0.2915 1.1241,-0.064c0.0088,-0.0081 0.0148,-0.0187 0.0172,-0.0304c0.0023,-0.0117 0.0009,-0.0238 -0.0041,-0.0346c-0.005,-0.0108 -0.0134,-0.0198 -0.0238,-0.0256c-0.0104,-0.0057 -0.0224,-0.0081 -0.0343,-0.0066c-0.3018,0.0068 -0.4586,-0.2392 -0.7042,-0.4273c-0.0315,-0.0234 -0.055,-0.0559 -0.0673,-0.0931c-0.0122,-0.0372 -0.0127,-0.0772 -0.0013,-0.1147c0.009,-0.0258 0.0225,-0.0427 0.0416,-0.0438c0.0888,-0.0056 0.2704,0.1746 0.3373,0.1685c0.2163,-0.0135 0.3715,-0.1331 0.3827,-0.337c0.0107,-0.1965 -0.195,-0.1819 -0.3294,-0.2168c-0.3214,-0.0831 -0.6811,-0.0483 -0.9599,-0.2611c-1.0016,-0.7632 -1.984,-1.5505 -2.8406,-2.4783c-0.53,-0.5739 -0.8548,-1.2916 -1.3286,-1.9093c-1.3152,-1.7084 -2.9451,-2.6675 -5.182,-2.2329c-0.0832,0.0157 -0.1776,0.0697 -0.2939,-0.0831c1.5377,-0.6211 4.9088,-1.3478 8.7677,-2.006c-5.7502,-0.2459 -7.9483,0.7733 -9.8969,1.2254c0.1518,-0.2184 0.3114,-0.2673 0.4463,-0.3437c3.3008,-1.8785 3.5571,-2.1739 7.5414,-5.6006c0.0461,-0.0399 0.1012,-0.0831 0.1613,-0.1286c0.562,-0.3044 1.2022,-0.4718 1.8514,-0.5414c1.3601,-0.146 2.7253,-0.2482 4.0854,-0.3931c3.2255,-0.415 6.0801,-3.7907 6.5522,-4.1905c-2.4443,5.8281 -8.6593,6.1847 -12.0349,6.6491c0.7723,0.4403 3.1373,0.9463 3.9427,1.0052c1.5928,0.1168 4.3148,-0.7491 5.5468,-1.7628c0.4913,-0.4097 1.0199,-0.7728 1.5787,-1.0844c0.3002,-0.1651 0.693,-0.1842 1.0488,-0.2156c0.1641,-0.0146 0.3372,0.0836 0.5193,0.1409c-0.0318,0.0352 -0.0644,0.0706 -0.0978,0.1062c-0.5277,0.4324 -1.0156,0.8221 -1.4849,1.2298c-0.1753,0.1522 -0.9864,0.7346 -1.3045,1.0064c-0.9505,0.6132 -1.9363,1.17 -2.9523,1.6673c2.3043,-0.1533 3.9651,-0.57 5.0167,-0.9249c0.1517,-0.0298 0.3018,-0.0672 0.4496,-0.1123c0.8405,-0.2485 1.5662,-0.7855 2.0492,-1.5163c0.4496,-0.661 0.8318,-1.3669 1.2264,-2.0633c0.4221,-0.7452 0.8307,-1.4971 1.4967,-2.0632c0.6744,-0.5734 1.4158,-0.9547 2.3527,-0.7542c-0.5008,-0.8025 -1.9306,-1.3759 -3.0727,-1.2186c-1.2404,0.1684 -2.1031,0.8794 -2.7304,1.9531c-0.0025,-0.0754 0.0041,-0.1508 0.0197,-0.2246c0.217,-0.6452 0.3844,-1.3147 0.6745,-1.9268c0.3872,-0.8182 1.0993,-1.2686 1.9986,-1.3747c0.4988,-0.0514 1.0002,-0.0744 1.5017,-0.0691c1.2927,-0.0045 2.5685,-0.1151 3.7409,-0.725c1.3984,-0.7301 2.129,-1.8684 2.0908,-3.46665c-0.0051,-0.06125 -0.0135,-0.12218 -0.0253,-0.18251c-0.3203,0.3566 -0.6087,0.71206 -0.933,1.03106c-0.4653,0.4583 -1.0161,0.7834 -1.6653,0.9115c-0.8054,0.1583 -1.3208,-0.2702 -1.3073,-1.0923c0.0113,-0.69358 0.281,-1.31076 0.6183,-1.90042c1.5045,-2.64505 3.8364,-3.70981 6.8079,-3.54526c0.1057,0.00561 0.2114,0.01516 0.3226,0.02302c-0.0084,-0.03088 -0.0078,-0.06121 -0.0191,-0.06626"/>
  <path id="svg_3" fill="#ED4B00" d="m33.5499,27.81906c-0.3934,-0.0095 -0.48,0.1123 -0.331,0.4802c-0.208,-0.0113 -0.4036,-0.0264 -0.5991,-0.0298c-0.0629,0.0073 -0.1245,0.023 -0.1833,0.0466c0.1428,0.4279 -0.1939,0.1617 -0.3029,0.1937c-0.1225,0.036 -0.2642,0.0085 -0.3974,0.0085l-0.0253,0.0561c0.1276,0.0624 0.2569,0.1208 0.3817,0.1876c0.594,0.3184 1.2612,0.4358 1.8811,0.6795c1.2814,0.5054 2.5292,1.0844 3.7701,1.6848c0.122,0.0561 0.2631,0.2403 0.4081,0.014c0.3428,-0.5341 0.6874,-1.067 1.0426,-1.6179c-1.6716,-0.3858 -3.3122,-0.8951 -4.9083,-1.5236c-0.2377,-0.0927 -0.4811,-0.1752 -0.7363,-0.1814"/>
  <path id="svg_4" fill="#ED4B00" d="m39.2884,27.11806c-1.9514,-0.0674 -3.8994,-0.1847 -5.803,-0.6705c-0.1366,-0.0436 -0.2842,-0.0379 -0.417,0.0163c0.277,0.1252 0.5401,0.219 0.7374,0.4167c0.1972,0.1976 0.426,0.4043 -0.1293,0.5992c0.0915,0.0438 0.1853,0.0828 0.281,0.1168c1.7226,0.4425 3.4813,0.7059 5.2236,1.0535c0.177,0.0354 0.231,-0.0303 0.2546,-0.1982c0.0433,-0.3038 0.0843,-0.6133 0.1781,-0.9031c0.1096,-0.3369 0.0321,-0.4183 -0.3254,-0.4307z"/>
  <path id="svg_5" fill="#ED4B00" d="m30.8418,31.83816c-0.1899,0.0759 -0.4434,0.1472 -0.562,-0.0292c-0.1731,-0.2628 -0.4154,-0.4678 -0.5992,-0.7255c0.1467,-0.0904 0.2721,-0.0865 0.3738,-0.0236c0.285,0.1763 0.5896,0.1544 0.9054,0.1505c0.2041,0 0.1996,-0.0736 0.1428,-0.2089c-0.0568,-0.1354 -0.1456,-0.2729 -0.2984,-0.3044c-0.3002,-0.0606 -0.5817,-0.205 -0.8993,-0.1965c-0.3782,0.0106 -0.6874,-0.1399 -0.9858,-0.3729c-0.9549,-0.7514 -1.9211,-1.491 -2.9839,-2.0936c-0.1275,-0.0725 -0.2388,-0.1584 -0.4046,-0.1297c-0.6014,0.1039 -1.2045,0.1965 -1.8441,0.2999c0.0562,0.0522 0.0748,0.0791 0.0973,0.0848c0.1028,0.0275 0.2073,0.0494 0.3119,0.0724c1.9975,0.4493 3.6926,1.3798 4.9246,3.0584c0.2054,0.2649 0.4457,0.5008 0.7143,0.7014c0.5317,0.42 1.1994,0.2847 1.5569,-0.3218c-0.1625,-0.0994 -0.3019,-0.0202 -0.4497,0.0387z"/>
  <path id="svg_6" fill="#ED4B00" d="m37.7018,25.57546c-0.0321,-0.233 -0.1091,-0.2701 -0.3339,-0.2364c-0.5682,0.0854 -1.1415,0.1376 -1.7136,0.1954c-2.3364,0.2365 -4.493,-0.6082 -6.6973,-1.1349c0.09,0.1123 0.2063,0.1718 0.3305,0.2313c2.4168,1.158 5.0111,1.5725 7.6499,1.7909c0.8993,0.0736 0.8914,0.0646 0.7644,-0.8463z"/>
  <path id="svg_7" fill="#ED4B00" d="m16.7108,24.67366c-0.6436,-0.3089 -0.797,-1.0771 -1.4495,-1.3759c0.1411,-0.1033 0.1686,-0.1376 0.4805,-0.2139c-0.4204,-0.307 -0.9054,-0.514 -1.418,-0.6054c-0.1624,-0.0287 -0.2692,0.0466 -0.3603,0.1875c-0.254,0.3982 -0.6396,0.5891 -1.101,0.6453c-0.2175,0.0264 -0.4097,0.0758 -0.6267,0.1084c2.5944,-0.0365 3.8326,1.2529 4.475,1.2568"/>
  <path id="svg_8" fill="#ED4B00" d="m11.7736,23.06246c-0.1006,-0.2077 -0.2608,-0.3049 -0.48,-0.2297c-0.6745,0.232 -0.8993,1.2574 -0.3934,1.7797c0.1202,-0.6357 0.281,-0.793 1.2881,-1.1833c-0.281,-0.0522 -0.3411,-0.2173 -0.413,-0.3667"/>
  <path id="svg_9" fill="#ED4B00" d="m13.4848,22.20776c0.222,0.023 0.2007,0.1892 0.204,0.3369c0.0838,-0.1454 0.2434,-0.2976 0.0411,-0.4492c-0.2732,-0.2089 -0.5312,-0.091 -0.7453,0.1157c-0.1793,0.1735 -0.3153,0.4189 -0.1366,0.6317c0.1945,0.2308 0.4587,0.1915 0.6745,-0.0325c-0.1714,-0.0809 -0.4227,-0.1067 -0.3743,-0.3741c0.0171,-0.0732 0.0615,-0.1372 0.1241,-0.1789c0.0626,-0.0417 0.1388,-0.0581 0.2131,-0.0457"/>
  <path id="svg_10" fill="#ED4B00" d="m12.3744,22.69746c-0.1602,0.064 -0.4541,-0.0601 -0.453,0.2409c0,0.2033 0.1776,0.2314 0.3507,0.1747c0.1619,0.0224 0.3153,0.0275 0.4215,-0.1253c-0.1686,-0.0325 -0.0416,-0.4015 -0.3192,-0.2903zm-0.0708,0.3689c-0.0118,-0.0106 -0.059,-0.0415 -0.0562,-0.0561c0.0298,-0.0826 0.1079,-0.0994 0.1832,-0.1028c0.0191,0 0.0629,0.0562 0.0562,0.0702c-0.0287,0.0663 -0.0944,0.0803 -0.1849,0.0865"/>
  <path id="svg_11" fill="#ED4B00" d="m0,19.66256l0.0142,0.0124l-0.0006,-0.0044l-0.0136,-0.008z"/>
 </g>
</svg>